<svg xmlns="http://www.w3.org/2000/svg" viewBox="0 0 512 96" role="img" aria-labelledby="title desc">
  <title id="title">Fire line</title>
  <desc id="desc">A sweeping orange fire line with a bright hot core.</desc>
  <defs>
    <linearGradient id="fire-core" x1="0" x2="1" y1="0" y2="0">
      <stop offset="0" stop-color="#fff6a8" stop-opacity="0"/>
      <stop offset="0.12" stop-color="#fff6a8"/>
      <stop offset="0.34" stop-color="#ffcf38"/>
      <stop offset="0.63" stop-color="#ff6b16"/>
      <stop offset="0.86" stop-color="#fff2a0"/>
      <stop offset="1" stop-color="#ff6b16" stop-opacity="0"/>
    </linearGradient>
    <linearGradient id="fire-edge" x1="0" x2="1" y1="0" y2="0">
      <stop offset="0" stop-color="#ff3a12" stop-opacity="0"/>
      <stop offset="0.16" stop-color="#ff3a12" stop-opacity="0.92"/>
      <stop offset="0.5" stop-color="#ff9d1f"/>
      <stop offset="0.84" stop-color="#ff3a12" stop-opacity="0.92"/>
      <stop offset="1" stop-color="#ff3a12" stop-opacity="0"/>
    </linearGradient>
    <filter id="fire-glow" x="-12%" y="-120%" width="124%" height="340%">
      <feGaussianBlur stdDeviation="7" result="wide"/>
      <feColorMatrix
        in="wide"
        type="matrix"
        values="0 0 0 0 1 0 0 0 0 0.32 0 0 0 0 0.02 0 0 0 0.95 0"
        result="orange"
      />
      <feGaussianBlur in="SourceGraphic" stdDeviation="2.2" result="tight"/>
      <feMerge>
        <feMergeNode in="orange"/>
        <feMergeNode in="tight"/>
        <feMergeNode in="SourceGraphic"/>
      </feMerge>
    </filter>
  </defs>
  <g fill="none" stroke-linecap="round" filter="url(#fire-glow)">
    <path
      d="M14 55C96 22 163 22 236 46c82 27 145 23 263-13"
      stroke="url(#fire-edge)"
      stroke-width="26"
      opacity="0.58"
    />
    <path
      d="M14 55C96 22 163 22 236 46c82 27 145 23 263-13"
      stroke="url(#fire-core)"
      stroke-width="12"
    />
    <path
      d="M24 59C104 33 166 33 232 53c77 24 141 21 258-10"
      stroke="#fff7b0"
      stroke-width="4"
      opacity="0.92"
    />
  </g>
  <g fill="#fff2a0" opacity="0.88">
    <circle cx="105" cy="31" r="2.5"/>
    <circle cx="206" cy="42" r="2.2"/>
    <circle cx="318" cy="56" r="2.8"/>
    <circle cx="433" cy="39" r="2.4"/>
  </g>
  <g fill="#ff681c" opacity="0.68">
    <path d="M76 37c13-11 27-15 44-12-12 6-23 13-32 23Z"/>
    <path d="M363 49c16 0 31-4 45-12-9 12-20 20-36 24Z"/>
    <path d="M459 27c12-6 22-8 34-7-6 7-14 13-25 16Z"/>
  </g>
</svg>
